<svg width="856" height="168" viewBox="0 0 856 168" fill="none" xmlns="http://www.w3.org/2000/svg">
<mask id="path-1-outside-1_159_2" maskUnits="userSpaceOnUse" x="6" y="27" width="850" height="98" fill="black">
<rect fill="white" x="6" y="27" width="850" height="98"/>
<path d="M7.296 122V58H23.168L23.936 66.32C25.8987 63.0773 28.416 60.6453 31.488 59.024C34.56 57.3173 37.9733 56.464 41.728 56.464C46.9333 56.464 51.2853 57.5733 54.784 59.792C58.368 62.0107 60.9707 65.424 62.592 70.032C64.4693 65.68 67.1147 62.352 70.528 60.048C73.9413 57.6587 77.9093 56.464 82.432 56.464C89.9413 56.464 95.6587 58.8533 99.584 63.632C103.509 68.3253 105.472 75.5787 105.472 85.392V122H88.576V89.232C88.576 84.88 88.1067 81.5093 87.168 79.12C86.2293 76.7307 84.9493 75.024 83.328 74C81.7067 72.8907 79.7867 72.336 77.568 72.336C73.472 72.2507 70.3147 73.5733 68.096 76.304C65.8773 79.0347 64.768 83.088 64.768 88.464V122H47.872V89.232C47.872 84.88 47.4027 81.5093 46.464 79.12C45.6107 76.7307 44.3307 75.024 42.624 74C41.0027 72.8907 39.0827 72.336 36.864 72.336C32.768 72.2507 29.6107 73.5733 27.392 76.304C25.2587 79.0347 24.192 83.088 24.192 88.464V122H7.296ZM119.945 122V58H136.841V122H119.945ZM128.393 47.632C125.833 47.632 123.572 46.6933 121.609 44.816C119.646 42.8533 118.665 40.5493 118.665 37.904C118.665 35.2587 119.646 32.9973 121.609 31.12C123.572 29.1573 125.833 28.176 128.393 28.176C131.038 28.176 133.3 29.1573 135.177 31.12C137.14 32.9973 138.121 35.2587 138.121 37.904C138.121 40.5493 137.14 42.8533 135.177 44.816C133.3 46.6933 131.038 47.632 128.393 47.632ZM152.421 122V58H168.293L169.317 69.776V122H152.421ZM194.789 122V89.232H211.685V122H194.789ZM194.789 89.232C194.789 84.88 194.277 81.5093 193.253 79.12C192.314 76.7307 190.949 75.024 189.157 74C187.365 72.8907 185.274 72.336 182.885 72.336C178.533 72.2507 175.162 73.5733 172.773 76.304C170.469 79.0347 169.317 83.088 169.317 88.464H163.685C163.685 81.6373 164.666 75.8773 166.629 71.184C168.677 66.4053 171.493 62.7787 175.077 60.304C178.746 57.744 183.013 56.464 187.877 56.464C192.912 56.464 197.221 57.488 200.805 59.536C204.389 61.584 207.12 64.784 208.997 69.136C210.874 73.4027 211.77 78.9493 211.685 85.776V89.232H194.789ZM251.539 123.536C244.456 123.536 239.08 121.787 235.411 118.288C231.827 114.789 230.035 109.797 230.035 103.312V38.032H246.931V99.6C246.931 102.331 247.528 104.421 248.723 105.872C249.918 107.237 251.667 107.92 253.971 107.92C254.824 107.92 255.763 107.749 256.787 107.408C257.811 106.981 258.878 106.384 259.987 105.616L265.875 118.288C263.827 119.824 261.523 121.061 258.963 122C256.488 123.024 254.014 123.536 251.539 123.536ZM219.667 72.336V58H262.931V72.336H219.667ZM338.019 123.536C331.363 123.536 325.432 122.128 320.227 119.312C315.022 116.411 310.968 112.443 308.067 107.408C305.166 102.288 303.715 96.4853 303.715 90C303.715 83.4293 305.166 77.6267 308.067 72.592C310.968 67.5573 314.979 63.632 320.099 60.816C325.219 57.9147 331.107 56.464 337.763 56.464C344.163 56.464 350.008 58.0427 355.299 61.2C360.59 64.3573 364.43 68.9227 366.819 74.896L350.947 80.528C349.752 78.0533 347.875 76.0907 345.315 74.64C342.84 73.104 340.067 72.336 336.995 72.336C333.838 72.336 331.064 73.104 328.675 74.64C326.286 76.0907 324.408 78.1387 323.043 80.784C321.678 83.4293 320.995 86.5013 320.995 90C320.995 93.4987 321.678 96.5707 323.043 99.216C324.408 101.776 326.328 103.824 328.803 105.36C331.278 106.896 334.094 107.664 337.251 107.664C340.323 107.664 343.096 106.853 345.571 105.232C348.131 103.611 350.008 101.477 351.203 98.832L367.203 104.464C364.728 110.523 360.846 115.216 355.555 118.544C350.35 121.872 344.504 123.536 338.019 123.536ZM415.702 122L415.19 109.072V89.616C415.19 85.776 414.763 82.4907 413.91 79.76C413.142 77.0293 411.862 74.9387 410.07 73.488C408.363 71.952 406.017 71.184 403.03 71.184C400.299 71.184 397.825 71.7813 395.606 72.976C393.387 74.1707 391.51 76.0053 389.974 78.48L375.126 73.36C376.321 70.6293 378.07 67.984 380.374 65.424C382.678 62.7787 385.665 60.6453 389.334 59.024C393.089 57.3173 397.654 56.464 403.03 56.464C409.515 56.464 414.891 57.7013 419.158 60.176C423.51 62.6507 426.71 66.1493 428.758 70.672C430.891 75.1093 431.915 80.4 431.83 86.544L431.446 122H415.702ZM397.782 123.536C390.102 123.536 384.129 121.829 379.862 118.416C375.681 115.003 373.59 110.181 373.59 103.952C373.59 97.1253 375.851 92.0053 380.374 88.592C384.982 85.0933 391.425 83.344 399.702 83.344H415.958V95.888H405.59C400.043 95.888 396.203 96.5707 394.07 97.936C391.937 99.216 390.87 101.051 390.87 103.44C390.87 105.317 391.723 106.811 393.43 107.92C395.137 108.944 397.526 109.456 400.598 109.456C403.414 109.456 405.889 108.816 408.022 107.536C410.241 106.171 411.99 104.464 413.27 102.416C414.55 100.283 415.19 98.1067 415.19 95.888H419.286C419.286 104.592 417.622 111.376 414.294 116.24C411.051 121.104 405.547 123.536 397.782 123.536ZM469.232 123.536C465.136 123.536 461.296 122.939 457.712 121.744C454.128 120.464 450.971 118.672 448.24 116.368C445.509 113.979 443.376 111.077 441.84 107.664L456.304 101.008C457.584 103.056 459.333 104.848 461.552 106.384C463.771 107.835 466.331 108.56 469.232 108.56C472.048 108.56 474.224 108.176 475.76 107.408C477.296 106.555 478.064 105.36 478.064 103.824C478.064 102.288 477.424 101.179 476.144 100.496C474.949 99.728 473.285 99.088 471.152 98.576L465.264 97.04C459.12 95.4187 454.256 92.8587 450.672 89.36C447.173 85.776 445.424 81.68 445.424 77.072C445.424 70.5013 447.515 65.424 451.696 61.84C455.963 58.256 461.979 56.464 469.744 56.464C473.755 56.464 477.467 57.0613 480.88 58.256C484.379 59.4507 487.365 61.1147 489.84 63.248C492.315 65.3813 494.021 67.856 494.96 70.672L481.008 77.072C480.411 75.3653 478.96 74 476.656 72.976C474.352 71.8667 472.048 71.312 469.744 71.312C467.44 71.312 465.648 71.824 464.368 72.848C463.173 73.7867 462.576 75.1093 462.576 76.816C462.576 77.9253 463.173 78.864 464.368 79.632C465.563 80.3147 467.269 80.912 469.488 81.424L477.808 83.472C481.989 84.496 485.317 86.16 487.792 88.464C490.352 90.6827 492.187 93.2 493.296 96.016C494.491 98.7467 495.088 101.435 495.088 104.08C495.088 107.92 493.936 111.333 491.632 114.32C489.413 117.221 486.341 119.483 482.416 121.104C478.576 122.725 474.181 123.536 469.232 123.536ZM505.049 122V32.4H521.945V122H505.049ZM547.545 122V89.232H564.441V122H547.545ZM547.545 89.232C547.545 84.88 547.033 81.5093 546.009 79.12C544.985 76.7307 543.577 75.024 541.785 74C539.993 72.8907 537.902 72.336 535.513 72.336C531.161 72.2507 527.79 73.5733 525.401 76.304C523.097 79.0347 521.945 83.088 521.945 88.464H516.313C516.313 81.6373 517.294 75.8773 519.257 71.184C521.305 66.4053 524.121 62.7787 527.705 60.304C531.374 57.744 535.641 56.464 540.505 56.464C545.625 56.464 549.934 57.488 553.433 59.536C557.017 61.584 559.748 64.784 561.625 69.136C563.502 73.4027 564.441 78.9493 564.441 85.776V89.232H547.545ZM577.921 122V32.4H594.817V110.096L593.921 122H577.921ZM614.145 123.536C608.769 123.536 604.204 122.171 600.449 119.44C596.78 116.709 593.964 112.827 592.001 107.792C590.038 102.757 589.057 96.8267 589.057 90C589.057 83.088 590.038 77.1573 592.001 72.208C593.964 67.1733 596.78 63.2907 600.449 60.56C604.204 57.8293 608.769 56.464 614.145 56.464C620.033 56.464 625.11 57.8293 629.377 60.56C633.729 63.2907 637.1 67.1733 639.489 72.208C641.878 77.1573 643.073 83.088 643.073 90C643.073 96.8267 641.878 102.757 639.489 107.792C637.1 112.827 633.729 116.709 629.377 119.44C625.11 122.171 620.033 123.536 614.145 123.536ZM609.793 108.048C612.865 108.048 615.553 107.28 617.857 105.744C620.246 104.208 622.124 102.075 623.489 99.344C624.854 96.6133 625.537 93.4987 625.537 90C625.537 86.5013 624.854 83.3867 623.489 80.656C622.209 77.9253 620.374 75.8347 617.985 74.384C615.681 72.848 612.993 72.08 609.921 72.08C607.02 72.08 604.417 72.848 602.113 74.384C599.809 75.92 598.017 78.0533 596.737 80.784C595.457 83.4293 594.817 86.5013 594.817 90C594.817 93.4987 595.457 96.6133 596.737 99.344C598.017 102.075 599.766 104.208 601.985 105.744C604.289 107.28 606.892 108.048 609.793 108.048ZM692.827 122L692.315 109.072V89.616C692.315 85.776 691.888 82.4907 691.035 79.76C690.267 77.0293 688.987 74.9387 687.195 73.488C685.488 71.952 683.142 71.184 680.155 71.184C677.424 71.184 674.95 71.7813 672.731 72.976C670.512 74.1707 668.635 76.0053 667.099 78.48L652.251 73.36C653.446 70.6293 655.195 67.984 657.499 65.424C659.803 62.7787 662.79 60.6453 666.459 59.024C670.214 57.3173 674.779 56.464 680.155 56.464C686.64 56.464 692.016 57.7013 696.283 60.176C700.635 62.6507 703.835 66.1493 705.883 70.672C708.016 75.1093 709.04 80.4 708.955 86.544L708.571 122H692.827ZM674.907 123.536C667.227 123.536 661.254 121.829 656.987 118.416C652.806 115.003 650.715 110.181 650.715 103.952C650.715 97.1253 652.976 92.0053 657.499 88.592C662.107 85.0933 668.55 83.344 676.827 83.344H693.083V95.888H682.715C677.168 95.888 673.328 96.5707 671.195 97.936C669.062 99.216 667.995 101.051 667.995 103.44C667.995 105.317 668.848 106.811 670.555 107.92C672.262 108.944 674.651 109.456 677.723 109.456C680.539 109.456 683.014 108.816 685.147 107.536C687.366 106.171 689.115 104.464 690.395 102.416C691.675 100.283 692.315 98.1067 692.315 95.888H696.411C696.411 104.592 694.747 111.376 691.419 116.24C688.176 121.104 682.672 123.536 674.907 123.536ZM753.269 123.536C746.613 123.536 740.682 122.128 735.477 119.312C730.272 116.411 726.218 112.443 723.317 107.408C720.416 102.288 718.965 96.4853 718.965 90C718.965 83.4293 720.416 77.6267 723.317 72.592C726.218 67.5573 730.229 63.632 735.349 60.816C740.469 57.9147 746.357 56.464 753.013 56.464C759.413 56.464 765.258 58.0427 770.549 61.2C775.84 64.3573 779.68 68.9227 782.069 74.896L766.197 80.528C765.002 78.0533 763.125 76.0907 760.565 74.64C758.09 73.104 755.317 72.336 752.245 72.336C749.088 72.336 746.314 73.104 743.925 74.64C741.536 76.0907 739.658 78.1387 738.293 80.784C736.928 83.4293 736.245 86.5013 736.245 90C736.245 93.4987 736.928 96.5707 738.293 99.216C739.658 101.776 741.578 103.824 744.053 105.36C746.528 106.896 749.344 107.664 752.501 107.664C755.573 107.664 758.346 106.853 760.821 105.232C763.381 103.611 765.258 101.477 766.453 98.832L782.453 104.464C779.978 110.523 776.096 115.216 770.805 118.544C765.6 121.872 759.754 123.536 753.269 123.536ZM808.424 105.744L798.312 94.096L831.08 58H851.176L808.424 105.744ZM792.296 122V32.4H809.192V122H792.296ZM833.256 122L812.008 91.024L823.016 79.376L853.096 122H833.256Z"/>
</mask>
<path d="M7.296 122V58H23.168L23.936 66.32C25.8987 63.0773 28.416 60.6453 31.488 59.024C34.56 57.3173 37.9733 56.464 41.728 56.464C46.9333 56.464 51.2853 57.5733 54.784 59.792C58.368 62.0107 60.9707 65.424 62.592 70.032C64.4693 65.68 67.1147 62.352 70.528 60.048C73.9413 57.6587 77.9093 56.464 82.432 56.464C89.9413 56.464 95.6587 58.8533 99.584 63.632C103.509 68.3253 105.472 75.5787 105.472 85.392V122H88.576V89.232C88.576 84.88 88.1067 81.5093 87.168 79.12C86.2293 76.7307 84.9493 75.024 83.328 74C81.7067 72.8907 79.7867 72.336 77.568 72.336C73.472 72.2507 70.3147 73.5733 68.096 76.304C65.8773 79.0347 64.768 83.088 64.768 88.464V122H47.872V89.232C47.872 84.88 47.4027 81.5093 46.464 79.12C45.6107 76.7307 44.3307 75.024 42.624 74C41.0027 72.8907 39.0827 72.336 36.864 72.336C32.768 72.2507 29.6107 73.5733 27.392 76.304C25.2587 79.0347 24.192 83.088 24.192 88.464V122H7.296ZM119.945 122V58H136.841V122H119.945ZM128.393 47.632C125.833 47.632 123.572 46.6933 121.609 44.816C119.646 42.8533 118.665 40.5493 118.665 37.904C118.665 35.2587 119.646 32.9973 121.609 31.12C123.572 29.1573 125.833 28.176 128.393 28.176C131.038 28.176 133.3 29.1573 135.177 31.12C137.14 32.9973 138.121 35.2587 138.121 37.904C138.121 40.5493 137.14 42.8533 135.177 44.816C133.3 46.6933 131.038 47.632 128.393 47.632ZM152.421 122V58H168.293L169.317 69.776V122H152.421ZM194.789 122V89.232H211.685V122H194.789ZM194.789 89.232C194.789 84.88 194.277 81.5093 193.253 79.12C192.314 76.7307 190.949 75.024 189.157 74C187.365 72.8907 185.274 72.336 182.885 72.336C178.533 72.2507 175.162 73.5733 172.773 76.304C170.469 79.0347 169.317 83.088 169.317 88.464H163.685C163.685 81.6373 164.666 75.8773 166.629 71.184C168.677 66.4053 171.493 62.7787 175.077 60.304C178.746 57.744 183.013 56.464 187.877 56.464C192.912 56.464 197.221 57.488 200.805 59.536C204.389 61.584 207.12 64.784 208.997 69.136C210.874 73.4027 211.77 78.9493 211.685 85.776V89.232H194.789ZM251.539 123.536C244.456 123.536 239.08 121.787 235.411 118.288C231.827 114.789 230.035 109.797 230.035 103.312V38.032H246.931V99.6C246.931 102.331 247.528 104.421 248.723 105.872C249.918 107.237 251.667 107.92 253.971 107.92C254.824 107.92 255.763 107.749 256.787 107.408C257.811 106.981 258.878 106.384 259.987 105.616L265.875 118.288C263.827 119.824 261.523 121.061 258.963 122C256.488 123.024 254.014 123.536 251.539 123.536ZM219.667 72.336V58H262.931V72.336H219.667ZM338.019 123.536C331.363 123.536 325.432 122.128 320.227 119.312C315.022 116.411 310.968 112.443 308.067 107.408C305.166 102.288 303.715 96.4853 303.715 90C303.715 83.4293 305.166 77.6267 308.067 72.592C310.968 67.5573 314.979 63.632 320.099 60.816C325.219 57.9147 331.107 56.464 337.763 56.464C344.163 56.464 350.008 58.0427 355.299 61.2C360.59 64.3573 364.43 68.9227 366.819 74.896L350.947 80.528C349.752 78.0533 347.875 76.0907 345.315 74.64C342.84 73.104 340.067 72.336 336.995 72.336C333.838 72.336 331.064 73.104 328.675 74.64C326.286 76.0907 324.408 78.1387 323.043 80.784C321.678 83.4293 320.995 86.5013 320.995 90C320.995 93.4987 321.678 96.5707 323.043 99.216C324.408 101.776 326.328 103.824 328.803 105.36C331.278 106.896 334.094 107.664 337.251 107.664C340.323 107.664 343.096 106.853 345.571 105.232C348.131 103.611 350.008 101.477 351.203 98.832L367.203 104.464C364.728 110.523 360.846 115.216 355.555 118.544C350.35 121.872 344.504 123.536 338.019 123.536ZM415.702 122L415.19 109.072V89.616C415.19 85.776 414.763 82.4907 413.91 79.76C413.142 77.0293 411.862 74.9387 410.07 73.488C408.363 71.952 406.017 71.184 403.03 71.184C400.299 71.184 397.825 71.7813 395.606 72.976C393.387 74.1707 391.51 76.0053 389.974 78.48L375.126 73.36C376.321 70.6293 378.07 67.984 380.374 65.424C382.678 62.7787 385.665 60.6453 389.334 59.024C393.089 57.3173 397.654 56.464 403.03 56.464C409.515 56.464 414.891 57.7013 419.158 60.176C423.51 62.6507 426.71 66.1493 428.758 70.672C430.891 75.1093 431.915 80.4 431.83 86.544L431.446 122H415.702ZM397.782 123.536C390.102 123.536 384.129 121.829 379.862 118.416C375.681 115.003 373.59 110.181 373.59 103.952C373.59 97.1253 375.851 92.0053 380.374 88.592C384.982 85.0933 391.425 83.344 399.702 83.344H415.958V95.888H405.59C400.043 95.888 396.203 96.5707 394.07 97.936C391.937 99.216 390.87 101.051 390.87 103.44C390.87 105.317 391.723 106.811 393.43 107.92C395.137 108.944 397.526 109.456 400.598 109.456C403.414 109.456 405.889 108.816 408.022 107.536C410.241 106.171 411.99 104.464 413.27 102.416C414.55 100.283 415.19 98.1067 415.19 95.888H419.286C419.286 104.592 417.622 111.376 414.294 116.24C411.051 121.104 405.547 123.536 397.782 123.536ZM469.232 123.536C465.136 123.536 461.296 122.939 457.712 121.744C454.128 120.464 450.971 118.672 448.24 116.368C445.509 113.979 443.376 111.077 441.84 107.664L456.304 101.008C457.584 103.056 459.333 104.848 461.552 106.384C463.771 107.835 466.331 108.56 469.232 108.56C472.048 108.56 474.224 108.176 475.76 107.408C477.296 106.555 478.064 105.36 478.064 103.824C478.064 102.288 477.424 101.179 476.144 100.496C474.949 99.728 473.285 99.088 471.152 98.576L465.264 97.04C459.12 95.4187 454.256 92.8587 450.672 89.36C447.173 85.776 445.424 81.68 445.424 77.072C445.424 70.5013 447.515 65.424 451.696 61.84C455.963 58.256 461.979 56.464 469.744 56.464C473.755 56.464 477.467 57.0613 480.88 58.256C484.379 59.4507 487.365 61.1147 489.84 63.248C492.315 65.3813 494.021 67.856 494.96 70.672L481.008 77.072C480.411 75.3653 478.96 74 476.656 72.976C474.352 71.8667 472.048 71.312 469.744 71.312C467.44 71.312 465.648 71.824 464.368 72.848C463.173 73.7867 462.576 75.1093 462.576 76.816C462.576 77.9253 463.173 78.864 464.368 79.632C465.563 80.3147 467.269 80.912 469.488 81.424L477.808 83.472C481.989 84.496 485.317 86.16 487.792 88.464C490.352 90.6827 492.187 93.2 493.296 96.016C494.491 98.7467 495.088 101.435 495.088 104.08C495.088 107.92 493.936 111.333 491.632 114.32C489.413 117.221 486.341 119.483 482.416 121.104C478.576 122.725 474.181 123.536 469.232 123.536ZM505.049 122V32.4H521.945V122H505.049ZM547.545 122V89.232H564.441V122H547.545ZM547.545 89.232C547.545 84.88 547.033 81.5093 546.009 79.12C544.985 76.7307 543.577 75.024 541.785 74C539.993 72.8907 537.902 72.336 535.513 72.336C531.161 72.2507 527.79 73.5733 525.401 76.304C523.097 79.0347 521.945 83.088 521.945 88.464H516.313C516.313 81.6373 517.294 75.8773 519.257 71.184C521.305 66.4053 524.121 62.7787 527.705 60.304C531.374 57.744 535.641 56.464 540.505 56.464C545.625 56.464 549.934 57.488 553.433 59.536C557.017 61.584 559.748 64.784 561.625 69.136C563.502 73.4027 564.441 78.9493 564.441 85.776V89.232H547.545ZM577.921 122V32.4H594.817V110.096L593.921 122H577.921ZM614.145 123.536C608.769 123.536 604.204 122.171 600.449 119.44C596.78 116.709 593.964 112.827 592.001 107.792C590.038 102.757 589.057 96.8267 589.057 90C589.057 83.088 590.038 77.1573 592.001 72.208C593.964 67.1733 596.78 63.2907 600.449 60.56C604.204 57.8293 608.769 56.464 614.145 56.464C620.033 56.464 625.11 57.8293 629.377 60.56C633.729 63.2907 637.1 67.1733 639.489 72.208C641.878 77.1573 643.073 83.088 643.073 90C643.073 96.8267 641.878 102.757 639.489 107.792C637.1 112.827 633.729 116.709 629.377 119.44C625.11 122.171 620.033 123.536 614.145 123.536ZM609.793 108.048C612.865 108.048 615.553 107.28 617.857 105.744C620.246 104.208 622.124 102.075 623.489 99.344C624.854 96.6133 625.537 93.4987 625.537 90C625.537 86.5013 624.854 83.3867 623.489 80.656C622.209 77.9253 620.374 75.8347 617.985 74.384C615.681 72.848 612.993 72.08 609.921 72.08C607.02 72.08 604.417 72.848 602.113 74.384C599.809 75.92 598.017 78.0533 596.737 80.784C595.457 83.4293 594.817 86.5013 594.817 90C594.817 93.4987 595.457 96.6133 596.737 99.344C598.017 102.075 599.766 104.208 601.985 105.744C604.289 107.28 606.892 108.048 609.793 108.048ZM692.827 122L692.315 109.072V89.616C692.315 85.776 691.888 82.4907 691.035 79.76C690.267 77.0293 688.987 74.9387 687.195 73.488C685.488 71.952 683.142 71.184 680.155 71.184C677.424 71.184 674.95 71.7813 672.731 72.976C670.512 74.1707 668.635 76.0053 667.099 78.48L652.251 73.36C653.446 70.6293 655.195 67.984 657.499 65.424C659.803 62.7787 662.79 60.6453 666.459 59.024C670.214 57.3173 674.779 56.464 680.155 56.464C686.64 56.464 692.016 57.7013 696.283 60.176C700.635 62.6507 703.835 66.1493 705.883 70.672C708.016 75.1093 709.04 80.4 708.955 86.544L708.571 122H692.827ZM674.907 123.536C667.227 123.536 661.254 121.829 656.987 118.416C652.806 115.003 650.715 110.181 650.715 103.952C650.715 97.1253 652.976 92.0053 657.499 88.592C662.107 85.0933 668.55 83.344 676.827 83.344H693.083V95.888H682.715C677.168 95.888 673.328 96.5707 671.195 97.936C669.062 99.216 667.995 101.051 667.995 103.44C667.995 105.317 668.848 106.811 670.555 107.92C672.262 108.944 674.651 109.456 677.723 109.456C680.539 109.456 683.014 108.816 685.147 107.536C687.366 106.171 689.115 104.464 690.395 102.416C691.675 100.283 692.315 98.1067 692.315 95.888H696.411C696.411 104.592 694.747 111.376 691.419 116.24C688.176 121.104 682.672 123.536 674.907 123.536ZM753.269 123.536C746.613 123.536 740.682 122.128 735.477 119.312C730.272 116.411 726.218 112.443 723.317 107.408C720.416 102.288 718.965 96.4853 718.965 90C718.965 83.4293 720.416 77.6267 723.317 72.592C726.218 67.5573 730.229 63.632 735.349 60.816C740.469 57.9147 746.357 56.464 753.013 56.464C759.413 56.464 765.258 58.0427 770.549 61.2C775.84 64.3573 779.68 68.9227 782.069 74.896L766.197 80.528C765.002 78.0533 763.125 76.0907 760.565 74.64C758.09 73.104 755.317 72.336 752.245 72.336C749.088 72.336 746.314 73.104 743.925 74.64C741.536 76.0907 739.658 78.1387 738.293 80.784C736.928 83.4293 736.245 86.5013 736.245 90C736.245 93.4987 736.928 96.5707 738.293 99.216C739.658 101.776 741.578 103.824 744.053 105.36C746.528 106.896 749.344 107.664 752.501 107.664C755.573 107.664 758.346 106.853 760.821 105.232C763.381 103.611 765.258 101.477 766.453 98.832L782.453 104.464C779.978 110.523 776.096 115.216 770.805 118.544C765.6 121.872 759.754 123.536 753.269 123.536ZM808.424 105.744L798.312 94.096L831.08 58H851.176L808.424 105.744ZM792.296 122V32.4H809.192V122H792.296ZM833.256 122L812.008 91.024L823.016 79.376L853.096 122H833.256Z" fill="#22E4A3"/>
<path d="M7.296 122H6.296V123H7.296V122ZM7.296 58V57H6.296V58H7.296ZM23.168 58L24.1638 57.9081L24.0799 57H23.168V58ZM23.936 66.32L22.9402 66.4119L23.2193 69.4353L24.7915 66.8378L23.936 66.32ZM31.488 59.024L31.9548 59.9084L31.9643 59.9034L31.9736 59.8982L31.488 59.024ZM54.784 59.792L54.2484 60.6366L54.2576 60.6423L54.784 59.792ZM62.592 70.032L61.6487 70.3639L62.4974 72.776L63.5102 70.4281L62.592 70.032ZM70.528 60.048L71.0875 60.8768L71.0945 60.8721L71.1015 60.8672L70.528 60.048ZM99.584 63.632L98.8112 64.2668L98.8169 64.2736L99.584 63.632ZM105.472 122V123H106.472V122H105.472ZM88.576 122H87.576V123H88.576V122ZM87.168 79.12L88.0988 78.7543L87.168 79.12ZM83.328 74L82.7633 74.8253L82.7785 74.8357L82.794 74.8455L83.328 74ZM77.568 72.336L77.5472 73.3358L77.5576 73.336H77.568V72.336ZM68.096 76.304L67.3199 75.6734V75.6734L68.096 76.304ZM64.768 122V123H65.768V122H64.768ZM47.872 122H46.872V123H47.872V122ZM46.464 79.12L45.5223 79.4563L45.5275 79.4711L45.5332 79.4856L46.464 79.12ZM42.624 74L42.0593 74.8253L42.0839 74.8421L42.1095 74.8575L42.624 74ZM36.864 72.336L36.8432 73.3358L36.8536 73.336H36.864V72.336ZM27.392 76.304L26.6159 75.6734L26.6099 75.6808L26.604 75.6884L27.392 76.304ZM24.192 122V123H25.192V122H24.192ZM7.296 122H8.296V58H7.296H6.296V122H7.296ZM7.296 58V59H23.168V58V57H7.296V58ZM23.168 58L22.1722 58.0919L22.9402 66.4119L23.936 66.32L24.9318 66.2281L24.1638 57.9081L23.168 58ZM23.936 66.32L24.7915 66.8378C26.6691 63.7357 29.0577 61.4374 31.9548 59.9084L31.488 59.024L31.0212 58.1396C27.7743 59.8533 25.1283 62.419 23.0805 65.8022L23.936 66.32ZM31.488 59.024L31.9736 59.8982C34.8869 58.2797 38.1313 57.464 41.728 57.464V56.464V55.464C37.8154 55.464 34.2331 56.355 31.0024 58.1498L31.488 59.024ZM41.728 56.464V57.464C46.7921 57.464 50.9464 58.5425 54.2485 60.6365L54.784 59.792L55.3195 58.9475C51.6242 56.6041 47.0746 55.464 41.728 55.464V56.464ZM54.784 59.792L54.2576 60.6423C57.6175 62.7222 60.0905 65.9353 61.6487 70.3639L62.592 70.032L63.5353 69.7001C61.8509 64.9127 59.1185 61.2991 55.3104 58.9417L54.784 59.792ZM62.592 70.032L63.5102 70.4281C65.3235 66.2245 67.8555 63.0585 71.0875 60.8768L70.528 60.048L69.9685 59.2191C66.3739 61.6455 63.6152 65.1354 61.6738 69.6359L62.592 70.032ZM70.528 60.048L71.1015 60.8672C74.3322 58.6057 78.0961 57.464 82.432 57.464V56.464V55.464C77.7226 55.464 73.5505 56.7116 69.9545 59.2288L70.528 60.048ZM82.432 56.464V57.464C89.7127 57.464 95.1166 59.7689 98.8113 64.2667L99.584 63.632L100.357 62.9973C96.2007 57.9378 90.1699 55.464 82.432 55.464V56.464ZM99.584 63.632L98.8169 64.2736C102.524 68.7062 104.472 75.6804 104.472 85.392H105.472H106.472C106.472 75.4769 104.494 67.9444 100.351 62.9904L99.584 63.632ZM105.472 85.392H104.472V122H105.472H106.472V85.392H105.472ZM105.472 122V121H88.576V122V123H105.472V122ZM88.576 122H89.576V89.232H88.576H87.576V122H88.576ZM88.576 89.232H89.576C89.576 84.8296 89.1043 81.3138 88.0988 78.7543L87.168 79.12L86.2373 79.4856C87.1091 81.7048 87.576 84.9304 87.576 89.232H88.576ZM87.168 79.12L88.0988 78.7543C87.1083 76.2333 85.7154 74.3251 83.862 73.1545L83.328 74L82.794 74.8455C84.1833 75.7229 85.3503 77.2281 86.2373 79.4856L87.168 79.12ZM83.328 74L83.8927 73.1747C82.084 71.9372 79.9612 71.336 77.568 71.336V72.336V73.336C79.6122 73.336 81.3293 73.8441 82.7633 74.8253L83.328 74ZM77.568 72.336L77.5888 71.3362C73.2416 71.2456 69.7665 72.6622 67.3199 75.6734L68.096 76.304L68.8721 76.9346C70.8629 74.4844 73.7024 73.2557 77.5472 73.3358L77.568 72.336ZM68.096 76.304L67.3199 75.6734C64.8973 78.6551 63.768 82.9739 63.768 88.464H64.768H65.768C65.768 83.2021 66.8574 79.4143 68.8721 76.9346L68.096 76.304ZM64.768 88.464H63.768V122H64.768H65.768V88.464H64.768ZM64.768 122V121H47.872V122V123H64.768V122ZM47.872 122H48.872V89.232H47.872H46.872V122H47.872ZM47.872 89.232H48.872C48.872 84.8296 48.4003 81.3138 47.3948 78.7543L46.464 79.12L45.5332 79.4856C46.4051 81.7048 46.872 84.9304 46.872 89.232H47.872ZM46.464 79.12L47.4057 78.7837C46.4964 76.2375 45.0929 74.3151 43.1385 73.1425L42.624 74L42.1095 74.8575C43.5685 75.7329 44.7249 77.2238 45.5223 79.4563L46.464 79.12ZM42.624 74L43.1887 73.1747C41.38 71.9372 39.2572 71.336 36.864 71.336V72.336V73.336C38.9082 73.336 40.6253 73.8441 42.0593 74.8253L42.624 74ZM36.864 72.336L36.8848 71.3362C32.5376 71.2456 29.0625 72.6622 26.6159 75.6734L27.392 76.304L28.1681 76.9346C30.1589 74.4844 32.9984 73.2557 36.8432 73.3358L36.864 72.336ZM27.392 76.304L26.604 75.6884C24.2758 78.6684 23.192 82.9808 23.192 88.464H24.192H25.192C25.192 83.1952 26.2415 79.4009 28.18 76.9196L27.392 76.304ZM24.192 88.464H23.192V122H24.192H25.192V88.464H24.192ZM24.192 122V121H7.296V122V123H24.192V122ZM119.945 122H118.945V123H119.945V122ZM119.945 58V57H118.945V58H119.945ZM136.841 58H137.841V57H136.841V58ZM136.841 122V123H137.841V122H136.841ZM121.609 44.816L120.902 45.5231L120.91 45.531L120.918 45.5386L121.609 44.816ZM121.609 31.12L122.3 31.8426L122.308 31.835L122.316 31.8271L121.609 31.12ZM135.177 31.12L134.454 31.8112L134.47 31.8273L134.486 31.8426L135.177 31.12ZM135.177 44.816L134.47 44.1089L135.177 44.816ZM119.945 122H120.945V58H119.945H118.945V122H119.945ZM119.945 58V59H136.841V58V57H119.945V58ZM136.841 58H135.841V122H136.841H137.841V58H136.841ZM136.841 122V121H119.945V122V123H136.841V122ZM128.393 47.632V46.632C126.107 46.632 124.089 45.8046 122.3 44.0934L121.609 44.816L120.918 45.5386C123.054 47.582 125.559 48.632 128.393 48.632V47.632ZM121.609 44.816L122.316 44.1089C120.531 42.3235 119.665 40.2699 119.665 37.904H118.665H117.665C117.665 40.8287 118.762 43.3832 120.902 45.5231L121.609 44.816ZM118.665 37.904H119.665C119.665 35.5397 120.529 33.537 122.3 31.8426L121.609 31.12L120.918 30.3974C118.764 32.4577 117.665 34.9776 117.665 37.904H118.665ZM121.609 31.12L122.316 31.8271C124.109 30.0345 126.122 29.176 128.393 29.176V28.176V27.176C125.544 27.176 123.035 28.2801 120.902 30.4129L121.609 31.12ZM128.393 28.176V29.176C130.757 29.176 132.76 30.0398 134.454 31.8112L135.177 31.12L135.9 30.4288C133.839 28.2748 131.319 27.176 128.393 27.176V28.176ZM135.177 31.12L134.486 31.8426C136.257 33.537 137.121 35.5397 137.121 37.904H138.121H139.121C139.121 34.9776 138.022 32.4577 135.868 30.3974L135.177 31.12ZM138.121 37.904H137.121C137.121 40.2699 136.255 42.3235 134.47 44.1089L135.177 44.816L135.884 45.5231C138.024 43.3832 139.121 40.8287 139.121 37.904H138.121ZM135.177 44.816L134.47 44.1089C132.779 45.7995 130.772 46.632 128.393 46.632V47.632V48.632C131.305 48.632 133.82 47.5872 135.884 45.5231L135.177 44.816ZM152.421 122H151.421V123H152.421V122ZM152.421 58V57H151.421V58H152.421ZM168.293 58L169.289 57.9134L169.21 57H168.293V58ZM169.317 69.776H170.317V69.7326L170.313 69.6894L169.317 69.776ZM169.317 122V123H170.317V122H169.317ZM194.789 122H193.789V123H194.789V122ZM194.789 89.232V88.232H193.789V89.232H194.789ZM211.685 89.232H212.685V88.232H211.685V89.232ZM211.685 122V123H212.685V122H211.685ZM194.789 89.232H193.789V90.232H194.789V89.232ZM193.253 79.12L192.322 79.4856L192.328 79.4999L192.334 79.5139L193.253 79.12ZM189.157 74L188.631 74.8503L188.646 74.8595L188.661 74.8682L189.157 74ZM182.885 72.336L182.865 73.3358L182.875 73.336H182.885V72.336ZM172.773 76.304L172.02 75.6455L172.015 75.6523L172.009 75.6591L172.773 76.304ZM169.317 88.464V89.464H170.317V88.464H169.317ZM163.685 88.464H162.685V89.464H163.685V88.464ZM166.629 71.184L165.71 70.7901L165.706 70.7982L166.629 71.184ZM175.077 60.304L175.645 61.1269L175.649 61.1241L175.077 60.304ZM200.805 59.536L201.301 58.6678L200.805 59.536ZM208.997 69.136L208.079 69.5321L208.082 69.5387L208.997 69.136ZM211.685 85.776L210.685 85.7635V85.776H211.685ZM211.685 89.232V90.232H212.685V89.232H211.685ZM152.421 122H153.421V58H152.421H151.421V122H152.421ZM152.421 58V59H168.293V58V57H152.421V58ZM168.293 58L167.297 58.0866L168.321 69.8626L169.317 69.776L170.313 69.6894L169.289 57.9134L168.293 58ZM169.317 69.776H168.317V122H169.317H170.317V69.776H169.317ZM169.317 122V121H152.421V122V123H169.317V122ZM194.789 122H195.789V89.232H194.789H193.789V122H194.789ZM194.789 89.232V90.232H211.685V89.232V88.232H194.789V89.232ZM211.685 89.232H210.685V122H211.685H212.685V89.232H211.685ZM211.685 122V121H194.789V122V123H211.685V122ZM194.789 89.232H195.789C195.789 84.8238 195.274 81.2964 194.172 78.7261L193.253 79.12L192.334 79.5139C193.28 81.7223 193.789 84.9362 193.789 89.232H194.789ZM193.253 79.12L194.184 78.7543C193.183 76.2059 191.687 74.2942 189.653 73.1318L189.157 74L188.661 74.8682C190.211 75.7538 191.446 77.2554 192.322 79.4856L193.253 79.12ZM189.157 74L189.683 73.1497C187.713 71.9299 185.435 71.336 182.885 71.336V72.336V73.336C185.114 73.336 187.017 73.8514 188.631 74.8503L189.157 74ZM182.885 72.336L182.905 71.3362C178.322 71.2463 174.643 72.648 172.02 75.6455L172.773 76.304L173.526 76.9625C175.681 74.4986 178.744 73.255 182.865 73.3358L182.885 72.336ZM172.773 76.304L172.009 75.6591C169.492 78.6419 168.317 82.9667 168.317 88.464H169.317H170.317C170.317 83.2093 171.446 79.4275 173.537 76.9489L172.773 76.304ZM169.317 88.464V87.464H163.685V88.464V89.464H169.317V88.464ZM163.685 88.464H164.685C164.685 81.7271 165.654 76.1069 167.552 71.5698L166.629 71.184L165.706 70.7982C163.678 75.6478 162.685 81.5476 162.685 88.464H163.685ZM166.629 71.184L167.548 71.5779C169.536 66.9385 172.244 63.4753 175.645 61.1269L175.077 60.304L174.509 59.4811C170.742 62.082 167.818 65.8721 165.71 70.7901L166.629 71.184ZM175.077 60.304L175.649 61.1241C179.136 58.6915 183.199 57.464 187.877 57.464V56.464V55.464C182.827 55.464 178.357 56.7965 174.505 59.4839L175.077 60.304ZM187.877 56.464V57.464C192.776 57.464 196.906 58.4597 200.309 60.4042L200.805 59.536L201.301 58.6678C197.536 56.5163 193.048 55.464 187.877 55.464V56.464ZM200.805 59.536L200.309 60.4042C203.678 62.3292 206.274 65.3483 208.079 69.5321L208.997 69.136L209.915 68.7399C207.965 64.2197 205.1 60.8388 201.301 58.6678L200.805 59.536ZM208.997 69.136L208.082 69.5387C209.881 73.6284 210.769 79.0187 210.685 85.7635L211.685 85.776L212.685 85.7885C212.771 78.8799 211.868 73.1769 209.912 68.7333L208.997 69.136ZM211.685 85.776H210.685V89.232H211.685H212.685V85.776H211.685ZM211.685 89.232V88.232H194.789V89.232V90.232H211.685V89.232ZM235.411 118.288L234.712 119.004L234.721 119.012L235.411 118.288ZM230.035 38.032V37.032H229.035V38.032H230.035ZM246.931 38.032H247.931V37.032H246.931V38.032ZM248.723 105.872L247.951 106.508L247.961 106.519L247.97 106.531L248.723 105.872ZM256.787 107.408L257.103 108.357L257.138 108.345L257.172 108.331L256.787 107.408ZM259.987 105.616L260.894 105.195L260.394 104.118L259.418 104.794L259.987 105.616ZM265.875 118.288L266.475 119.088L267.123 118.602L266.782 117.867L265.875 118.288ZM258.963 122L258.619 121.061L258.6 121.068L258.581 121.076L258.963 122ZM219.667 72.336H218.667V73.336H219.667V72.336ZM219.667 58V57H218.667V58H219.667ZM262.931 58H263.931V57H262.931V58ZM262.931 72.336V73.336H263.931V72.336H262.931ZM251.539 123.536V122.536C244.61 122.536 239.521 120.825 236.101 117.564L235.411 118.288L234.721 119.012C238.639 122.748 244.302 124.536 251.539 124.536V123.536ZM235.411 118.288L236.11 117.572C232.771 114.313 231.035 109.611 231.035 103.312H230.035H229.035C229.035 109.984 230.883 115.266 234.712 119.004L235.411 118.288ZM230.035 103.312H231.035V38.032H230.035H229.035V103.312H230.035ZM230.035 38.032V39.032H246.931V38.032V37.032H230.035V38.032ZM246.931 38.032H245.931V99.6H246.931H247.931V38.032H246.931ZM246.931 99.6H245.931C245.931 102.46 246.555 104.812 247.951 106.508L248.723 105.872L249.495 105.236C248.502 104.03 247.931 102.201 247.931 99.6H246.931ZM248.723 105.872L247.97 106.531C249.404 108.169 251.462 108.92 253.971 108.92V107.92V106.92C251.872 106.92 250.431 106.306 249.476 105.213L248.723 105.872ZM253.971 107.92V108.92C254.956 108.92 256.003 108.723 257.103 108.357L256.787 107.408L256.471 106.459C255.523 106.775 254.693 106.92 253.971 106.92V107.92ZM256.787 107.408L257.172 108.331C258.273 107.872 259.401 107.238 260.556 106.438L259.987 105.616L259.418 104.794C258.354 105.53 257.349 106.09 256.402 106.485L256.787 107.408ZM259.987 105.616L259.08 106.037L264.968 118.709L265.875 118.288L266.782 117.867L260.894 105.195L259.987 105.616ZM265.875 118.288L265.275 117.488C263.31 118.962 261.093 120.154 258.619 121.061L258.963 122L259.307 122.939C261.953 121.969 264.344 120.686 266.475 119.088L265.875 118.288ZM258.963 122L258.581 121.076C256.217 122.054 253.872 122.536 251.539 122.536V123.536V124.536C254.155 124.536 256.76 123.994 259.345 122.924L258.963 122ZM219.667 72.336H220.667V58H219.667H218.667V72.336H219.667ZM219.667 58V59H262.931V58V57H219.667V58ZM262.931 58H261.931V72.336H262.931H263.931V58H262.931ZM262.931 72.336V71.336H219.667V72.336V73.336H262.931V72.336ZM320.227 119.312L319.74 120.186L319.751 120.192L320.227 119.312ZM308.067 107.408L307.197 107.901L307.201 107.907L308.067 107.408ZM308.067 72.592L308.933 73.0913L308.067 72.592ZM320.099 60.816L320.581 61.6923L320.592 61.686L320.099 60.816ZM366.819 74.896L367.153 75.8384L368.134 75.4905L367.747 74.5246L366.819 74.896ZM350.947 80.528L350.046 80.9627L350.436 81.7703L351.281 81.4704L350.947 80.528ZM345.315 74.64L344.788 75.4896L344.805 75.5002L344.822 75.51L345.315 74.64ZM328.675 74.64L329.194 75.4948L329.205 75.4881L329.216 75.4812L328.675 74.64ZM323.043 80.784L322.154 80.3254L323.043 80.784ZM323.043 99.216L322.154 99.6747L322.161 99.6866L323.043 99.216ZM328.803 105.36L329.33 104.51L328.803 105.36ZM345.571 105.232L345.036 104.387L345.029 104.391L345.023 104.396L345.571 105.232ZM351.203 98.832L351.535 97.8887L350.669 97.584L350.292 98.4204L351.203 98.832ZM367.203 104.464L368.129 104.842L368.526 103.87L367.535 103.521L367.203 104.464ZM355.555 118.544L355.023 117.698L355.016 117.701L355.555 118.544ZM338.019 123.536V122.536C331.508 122.536 325.745 121.16 320.703 118.432L320.227 119.312L319.751 120.192C325.12 123.096 331.218 124.536 338.019 124.536V123.536ZM320.227 119.312L320.714 118.439C315.662 115.623 311.742 111.782 308.933 106.909L308.067 107.408L307.201 107.907C310.195 113.103 314.381 117.198 319.74 120.185L320.227 119.312ZM308.067 107.408L308.937 106.915C306.129 101.96 304.715 96.3306 304.715 90H303.715H302.715C302.715 96.6401 304.202 102.616 307.197 107.901L308.067 107.408ZM303.715 90H304.715C304.715 83.5812 306.131 77.9551 308.933 73.0913L308.067 72.592L307.201 72.0927C304.201 77.2982 302.715 83.2774 302.715 90H303.715ZM308.067 72.592L308.933 73.0913C311.743 68.216 315.62 64.4206 320.581 61.6922L320.099 60.816L319.617 59.9398C314.338 62.8434 310.194 66.8987 307.201 72.0927L308.067 72.592ZM320.099 60.816L320.592 61.686C325.543 58.8806 331.257 57.464 337.763 57.464V56.464V55.464C330.957 55.464 324.895 56.9488 319.606 59.946L320.099 60.816ZM337.763 56.464V57.464C343.99 57.464 349.657 58.9975 354.787 62.0587L355.299 61.2L355.811 60.3413C350.36 57.0878 344.336 55.464 337.763 55.464V56.464ZM355.299 61.2L354.787 62.0587C359.88 65.0984 363.579 69.4881 365.891 75.2674L366.819 74.896L367.747 74.5246C365.281 68.3573 361.299 63.6162 355.811 60.3413L355.299 61.2ZM366.819 74.896L366.485 73.9536L350.613 79.5856L350.947 80.528L351.281 81.4704L367.153 75.8384L366.819 74.896ZM350.947 80.528L351.848 80.0933C350.558 77.4222 348.532 75.3134 345.808 73.77L345.315 74.64L344.822 75.51C347.218 76.8679 348.947 78.6844 350.046 80.9627L350.947 80.528ZM345.315 74.64L345.842 73.7904C343.201 72.1506 340.243 71.336 336.995 71.336V72.336V73.336C339.891 73.336 342.48 74.0574 344.788 75.4896L345.315 74.64ZM336.995 72.336V71.336C333.668 71.336 330.703 72.1478 328.134 73.7988L328.675 74.64L329.216 75.4812C331.426 74.0602 334.007 73.336 336.995 73.336V72.336ZM328.675 74.64L328.156 73.7852C325.599 75.3377 323.598 77.5275 322.154 80.3254L323.043 80.784L323.932 81.2426C325.218 78.7498 326.972 76.8437 329.194 75.4948L328.675 74.64ZM323.043 80.784L322.154 80.3254C320.704 83.1354 319.995 86.3697 319.995 90H320.995H321.995C321.995 86.633 322.651 83.7233 323.932 81.2426L323.043 80.784ZM320.995 90H319.995C319.995 93.6303 320.704 96.8646 322.154 99.6746L323.043 99.216L323.932 98.7574C322.651 96.2767 321.995 93.367 321.995 90H320.995ZM323.043 99.216L322.161 99.6866C323.609 102.403 325.652 104.581 328.276 106.21L328.803 105.36L329.33 104.51C327.005 103.067 325.207 101.149 323.925 98.7454L323.043 99.216ZM328.803 105.36L328.276 106.21C330.922 107.852 333.924 108.664 337.251 108.664V107.664V106.664C334.264 106.664 331.633 105.94 329.33 104.51L328.803 105.36ZM337.251 107.664V108.664C340.51 108.664 343.475 107.801 346.119 106.068L345.571 105.232L345.023 104.396C342.718 105.906 340.136 106.664 337.251 106.664V107.664ZM345.571 105.232L346.106 106.077C348.823 104.356 350.836 102.075 352.114 99.2436L351.203 98.832L350.292 98.4204C349.181 100.88 347.439 102.866 345.036 104.387L345.571 105.232ZM351.203 98.832L350.871 99.7753L366.871 105.407L367.203 104.464L367.535 103.521L351.535 97.8887L351.203 98.832ZM367.203 104.464L366.277 104.086C363.878 109.961 360.128 114.486 355.023 117.698L355.555 118.544L356.087 119.39C361.564 115.946 365.579 111.084 368.129 104.842L367.203 104.464ZM355.555 118.544L355.016 117.701C349.98 120.921 344.323 122.536 338.019 122.536V123.536V124.536C344.685 124.536 350.719 122.823 356.094 119.387L355.555 118.544ZM415.702 122L414.703 122.04L414.741 123H415.702V122ZM415.19 109.072H414.19V109.092L414.191 109.112L415.19 109.072ZM413.91 79.76L412.947 80.0307L412.951 80.0446L412.956 80.0583L413.91 79.76ZM410.07 73.488L409.401 74.2313L409.42 74.2488L409.441 74.2652L410.07 73.488ZM395.606 72.976L395.132 72.0955L395.606 72.976ZM389.974 78.48L389.648 79.4254L390.403 79.6856L390.824 79.0074L389.974 78.48ZM375.126 73.36L374.21 72.9592L373.775 73.9521L374.8 74.3054L375.126 73.36ZM380.374 65.424L381.117 66.093L381.123 66.0869L381.128 66.0808L380.374 65.424ZM389.334 59.024L389.738 59.9387L389.748 59.9344L389.334 59.024ZM419.158 60.176L418.656 61.0411L418.664 61.0453L419.158 60.176ZM428.758 70.672L427.847 71.0845L427.852 71.095L427.857 71.1053L428.758 70.672ZM431.83 86.544L430.83 86.5301L430.83 86.5332L431.83 86.544ZM431.446 122V123H432.435L432.446 122.011L431.446 122ZM379.862 118.416L379.23 119.191L379.237 119.197L379.862 118.416ZM380.374 88.592L380.976 89.3902L380.979 89.3884L380.374 88.592ZM415.958 83.344H416.958V82.344H415.958V83.344ZM415.958 95.888V96.888H416.958V95.888H415.958ZM394.07 97.936L394.585 98.7935L394.597 98.7861L394.609 98.7783L394.07 97.936ZM393.43 107.92L392.885 108.758L392.9 108.768L392.915 108.777L393.43 107.92ZM408.022 107.536L408.537 108.394L408.546 108.388L408.022 107.536ZM413.27 102.416L414.118 102.946L414.123 102.938L414.128 102.93L413.27 102.416ZM415.19 95.888V94.888H414.19V95.888H415.19ZM419.286 95.888H420.286V94.888H419.286V95.888ZM414.294 116.24L413.469 115.675L413.462 115.685L414.294 116.24ZM415.702 122L416.701 121.96L416.189 109.032L415.19 109.072L414.191 109.112L414.703 122.04L415.702 122ZM415.19 109.072H416.19V89.616H415.19H414.19V109.072H415.19ZM415.19 89.616H416.19C416.19 85.7071 415.756 82.3155 414.864 79.4617L413.91 79.76L412.956 80.0583C413.77 82.6658 414.19 85.8449 414.19 89.616H415.19ZM413.91 79.76L414.873 79.4893C414.062 76.6058 412.686 74.3191 410.699 72.7108L410.07 73.488L409.441 74.2652C411.038 75.5582 412.222 77.4528 412.947 80.0307L413.91 79.76ZM410.07 73.488L410.739 72.7447C408.799 70.9987 406.188 70.184 403.03 70.184V71.184V72.184C405.846 72.184 407.928 72.9053 409.401 74.2313L410.07 73.488ZM403.03 71.184V70.184C400.148 70.184 397.508 70.8159 395.132 72.0955L395.606 72.976L396.08 73.8565C398.141 72.7467 400.451 72.184 403.03 72.184V71.184ZM395.606 72.976L395.132 72.0955C392.737 73.3852 390.738 75.3529 389.124 77.9526L389.974 78.48L390.824 79.0074C392.282 76.6578 394.038 74.9561 396.08 73.8565L395.606 72.976ZM389.974 78.48L390.3 77.5346L375.452 72.4146L375.126 73.36L374.8 74.3054L389.648 79.4254L389.974 78.48ZM375.126 73.36L376.042 73.7608C377.188 71.1421 378.874 68.5855 381.117 66.093L380.374 65.424L379.631 64.755C377.266 67.3825 375.453 70.1165 374.21 72.9592L375.126 73.36ZM380.374 65.424L381.128 66.0808C383.323 63.5609 386.184 61.5093 389.738 59.9387L389.334 59.024L388.93 58.1093C385.146 59.7814 382.033 61.9965 379.62 64.7672L380.374 65.424ZM389.334 59.024L389.748 59.9344C393.339 58.3018 397.755 57.464 403.03 57.464V56.464V55.464C397.553 55.464 392.838 56.3329 388.92 58.1136L389.334 59.024ZM403.03 56.464V57.464C409.393 57.464 414.583 58.6784 418.656 61.041L419.158 60.176L419.66 59.311C415.2 56.7243 409.638 55.464 403.03 55.464V56.464ZM419.158 60.176L418.664 61.0453C422.834 63.4165 425.887 66.756 427.847 71.0845L428.758 70.672L429.669 70.2595C427.533 65.5426 424.186 61.8849 419.652 59.3067L419.158 60.176ZM428.758 70.672L427.857 71.1053C429.909 75.3729 430.914 80.5033 430.83 86.5301L431.83 86.544L432.83 86.5579C432.917 80.2967 431.874 74.8457 429.659 70.2387L428.758 70.672ZM431.83 86.544L430.83 86.5332L430.446 121.989L431.446 122L432.446 122.011L432.83 86.5548L431.83 86.544ZM431.446 122V121H415.702V122V123H431.446V122ZM397.782 123.536V122.536C390.239 122.536 384.516 120.859 380.487 117.635L379.862 118.416L379.237 119.197C383.741 122.8 389.965 124.536 397.782 124.536V123.536ZM379.862 118.416L380.494 117.641C376.583 114.448 374.59 109.933 374.59 103.952H373.59H372.59C372.59 110.43 374.778 115.557 379.23 119.191L379.862 118.416ZM373.59 103.952H374.59C374.59 97.367 376.757 92.575 380.976 89.3902L380.374 88.592L379.772 87.7938C374.946 91.4357 372.59 96.8837 372.59 103.952H373.59ZM380.374 88.592L380.979 89.3884C385.352 86.068 391.552 84.344 399.702 84.344V83.344V82.344C391.297 82.344 384.612 84.1187 379.769 87.7956L380.374 88.592ZM399.702 83.344V84.344H415.958V83.344V82.344H399.702V83.344ZM415.958 83.344H414.958V95.888H415.958H416.958V83.344H415.958ZM415.958 95.888V94.888H405.59V95.888V96.888H415.958V95.888ZM405.59 95.888V94.888C400.031 94.888 395.929 95.5593 393.531 97.0937L394.07 97.936L394.609 98.7783C396.478 97.5821 400.056 96.888 405.59 96.888V95.888ZM394.07 97.936L393.556 97.0785C391.136 98.5301 389.87 100.682 389.87 103.44H390.87H391.87C391.87 101.419 392.737 99.9019 394.585 98.7935L394.07 97.936ZM390.87 103.44H389.87C389.87 105.688 390.923 107.483 392.885 108.758L393.43 107.92L393.975 107.082C392.524 106.138 391.87 104.946 391.87 103.44H390.87ZM393.43 107.92L392.915 108.777C394.84 109.932 397.435 110.456 400.598 110.456V109.456V108.456C397.617 108.456 395.433 107.956 393.944 107.063L393.43 107.92ZM400.598 109.456V110.456C403.571 110.456 406.228 109.779 408.536 108.393L408.022 107.536L407.508 106.679C405.549 107.853 403.257 108.456 400.598 108.456V109.456ZM408.022 107.536L408.546 108.388C410.886 106.948 412.75 105.135 414.118 102.946L413.27 102.416L412.422 101.886C411.23 103.793 409.596 105.393 407.498 106.684L408.022 107.536ZM413.27 102.416L414.128 102.93C415.489 100.661 416.19 98.3092 416.19 95.888H415.19H414.19C414.19 97.9041 413.611 99.9043 412.413 101.902L413.27 102.416ZM415.19 95.888V96.888H419.286V95.888V94.888H415.19V95.888ZM419.286 95.888H418.286C418.286 104.481 416.641 111.04 413.469 115.675L414.294 116.24L415.119 116.805C418.603 111.712 420.286 104.703 420.286 95.888H419.286ZM414.294 116.24L413.462 115.685C410.463 120.183 405.335 122.536 397.782 122.536V123.536V124.536C405.76 124.536 411.639 122.025 415.126 116.795L414.294 116.24ZM457.712 121.744L457.376 122.686L457.386 122.689L457.396 122.693L457.712 121.744ZM448.24 116.368L447.581 117.121L447.588 117.126L447.595 117.132L448.24 116.368ZM441.84 107.664L441.422 106.756L440.521 107.17L440.928 108.074L441.84 107.664ZM456.304 101.008L457.152 100.478L456.686 99.7316L455.886 100.1L456.304 101.008ZM461.552 106.384L460.983 107.206L460.994 107.214L461.005 107.221L461.552 106.384ZM475.76 107.408L476.207 108.302L476.227 108.293L476.246 108.282L475.76 107.408ZM476.144 100.496L475.603 101.337L475.637 101.359L475.673 101.378L476.144 100.496ZM471.152 98.576L470.9 99.5436L470.909 99.5461L470.919 99.5484L471.152 98.576ZM465.264 97.04L465.009 98.0069L465.012 98.0076L465.264 97.04ZM450.672 89.36L449.956 90.0585L449.965 90.0672L449.973 90.0756L450.672 89.36ZM451.696 61.84L451.053 61.0743L451.045 61.0807L451.696 61.84ZM480.88 58.256L480.55 59.1999L480.557 59.2023L480.88 58.256ZM489.84 63.248L490.493 62.4906L489.84 63.248ZM494.96 70.672L495.377 71.5809L496.192 71.2069L495.909 70.3558L494.96 70.672ZM481.008 77.072L480.064 77.4024L480.427 78.4388L481.425 77.9809L481.008 77.072ZM476.656 72.976L476.222 73.877L476.236 73.8836L476.25 73.8898L476.656 72.976ZM464.368 72.848L464.986 73.6343L464.993 73.6289L464.368 72.848ZM464.368 79.632L463.827 80.4732L463.849 80.4873L463.872 80.5002L464.368 79.632ZM469.488 81.424L469.727 80.453L469.72 80.4512L469.713 80.4496L469.488 81.424ZM477.808 83.472L477.569 84.443L477.57 84.4433L477.808 83.472ZM487.792 88.464L487.111 89.1959L487.124 89.208L487.137 89.2197L487.792 88.464ZM493.296 96.016L492.366 96.3825L492.372 96.3998L492.38 96.4168L493.296 96.016ZM491.632 114.32L490.84 113.709L490.838 113.713L491.632 114.32ZM482.416 121.104L482.034 120.18L482.027 120.183L482.416 121.104ZM469.232 123.536V122.536C465.234 122.536 461.502 121.953 458.028 120.795L457.712 121.744L457.396 122.693C461.09 123.924 465.038 124.536 469.232 124.536V123.536ZM457.712 121.744L458.048 120.802C454.57 119.56 451.518 117.826 448.885 115.604L448.24 116.368L447.595 117.132C450.423 119.518 453.686 121.368 457.376 122.686L457.712 121.744ZM448.24 116.368L448.898 115.615C446.279 113.324 444.231 110.54 442.752 107.254L441.84 107.664L440.928 108.074C442.521 111.614 444.739 114.634 447.581 117.121L448.24 116.368ZM441.84 107.664L442.258 108.572L456.722 101.916L456.304 101.008L455.886 100.1L441.422 106.756L441.84 107.664ZM456.304 101.008L455.456 101.538C456.816 103.714 458.665 105.602 460.983 107.206L461.552 106.384L462.121 105.562C460.001 104.094 458.352 102.398 457.152 100.478L456.304 101.008ZM461.552 106.384L461.005 107.221C463.401 108.788 466.155 109.56 469.232 109.56V108.56V107.56C466.506 107.56 464.14 106.881 462.099 105.547L461.552 106.384ZM469.232 108.56V109.56C472.116 109.56 474.471 109.171 476.207 108.302L475.76 107.408L475.313 106.514C473.977 107.181 471.98 107.56 469.232 107.56V108.56ZM475.76 107.408L476.246 108.282C478.044 107.283 479.064 105.782 479.064 103.824H478.064H477.064C477.064 104.938 476.548 105.826 475.274 106.534L475.76 107.408ZM478.064 103.824H479.064C479.064 102.916 478.874 102.075 478.45 101.34C478.025 100.603 477.397 100.031 476.615 99.6136L476.144 100.496L475.673 101.378C476.171 101.644 476.503 101.968 476.718 102.34C476.934 102.715 477.064 103.196 477.064 103.824H478.064ZM476.144 100.496L476.685 99.6548C475.359 98.8025 473.575 98.1291 471.385 97.6036L471.152 98.576L470.919 99.5484C472.996 100.047 474.54 100.654 475.603 101.337L476.144 100.496ZM471.152 98.576L471.404 97.6084L465.516 96.0724L465.264 97.04L465.012 98.0076L470.9 99.5436L471.152 98.576ZM465.264 97.04L465.519 96.0731C459.498 94.4842 454.802 91.9942 451.371 88.6444L450.672 89.36L449.973 90.0756C453.71 93.7232 458.742 96.3531 465.009 98.0069L465.264 97.04ZM450.672 89.36L451.388 88.6615C448.054 85.2464 446.424 81.3951 446.424 77.072H445.424H444.424C444.424 81.9649 446.293 86.3056 449.956 90.0585L450.672 89.36ZM445.424 77.072H446.424C446.424 70.7313 448.43 65.9563 452.347 62.5993L451.696 61.84L451.045 61.0807C446.599 64.8917 444.424 70.2714 444.424 77.072H445.424ZM451.696 61.84L452.339 62.6057C456.366 59.2231 462.122 57.464 469.744 57.464V56.464V55.464C461.835 55.464 455.559 57.2889 451.053 61.0743L451.696 61.84ZM469.744 56.464V57.464C473.654 57.464 477.253 58.0462 480.55 59.1999L480.88 58.256L481.21 57.3121C477.68 56.0765 473.855 55.464 469.744 55.464V56.464ZM480.88 58.256L480.557 59.2023C483.95 60.3611 486.821 61.9658 489.187 64.0054L489.84 63.248L490.493 62.4906C487.91 60.2635 484.807 58.5402 481.203 57.3096L480.88 58.256ZM489.84 63.248L489.187 64.0054C491.539 66.0332 493.135 68.3602 494.011 70.9882L494.96 70.672L495.909 70.3558C494.907 67.3518 493.09 64.7294 490.493 62.4906L489.84 63.248ZM494.96 70.672L494.543 69.7631L480.591 76.1631L481.008 77.072L481.425 77.9809L495.377 71.5809L494.96 70.672ZM481.008 77.072L481.952 76.7416C481.232 74.6853 479.516 73.1529 477.062 72.0622L476.656 72.976L476.25 73.8898C478.404 74.8471 479.589 76.0453 480.064 77.4024L481.008 77.072ZM476.656 72.976L477.09 72.075C474.665 70.9077 472.214 70.312 469.744 70.312V71.312V72.312C471.882 72.312 474.038 72.8256 476.222 73.877L476.656 72.976ZM469.744 71.312V70.312C467.303 70.312 465.26 70.8536 463.743 72.0671L464.368 72.848L464.993 73.6289C466.036 72.7944 467.577 72.312 469.744 72.312V71.312ZM464.368 72.848L463.75 72.0617C462.282 73.215 461.576 74.8455 461.576 76.816H462.576H463.576C463.576 75.3731 464.064 74.3583 464.986 73.6343L464.368 72.848ZM462.576 76.816H461.576C461.576 78.3611 462.437 79.5796 463.827 80.4732L464.368 79.632L464.909 78.7908C463.91 78.1484 463.576 77.4896 463.576 76.816H462.576ZM464.368 79.632L463.872 80.5002C465.189 81.2526 467.003 81.8768 469.263 82.3984L469.488 81.424L469.713 80.4496C467.536 79.9472 465.937 79.3767 464.864 78.7638L464.368 79.632ZM469.488 81.424L469.249 82.395L477.569 84.443L477.808 83.472L478.047 82.501L469.727 80.453L469.488 81.424ZM477.808 83.472L477.57 84.4433C481.63 85.4375 484.791 87.0359 487.111 89.1959L487.792 88.464L488.473 87.7321C485.844 85.2841 482.349 83.5545 478.046 82.5007L477.808 83.472ZM487.792 88.464L487.137 89.2197C489.59 91.3455 491.322 93.7337 492.366 96.3825L493.296 96.016L494.226 95.6495C493.051 92.6663 491.114 90.0198 488.447 87.7083L487.792 88.464ZM493.296 96.016L492.38 96.4168C493.526 99.0371 494.088 101.589 494.088 104.08H495.088H496.088C496.088 101.28 495.455 98.4562 494.212 95.6152L493.296 96.016ZM495.088 104.08H494.088C494.088 107.703 493.007 110.901 490.84 113.709L491.632 114.32L492.424 114.931C494.865 111.766 496.088 108.137 496.088 104.08H495.088ZM491.632 114.32L490.838 113.713C488.743 116.452 485.823 118.615 482.034 120.18L482.416 121.104L482.798 122.028C486.859 120.351 490.084 117.99 492.426 114.927L491.632 114.32ZM482.416 121.104L482.027 120.183C478.331 121.743 474.072 122.536 469.232 122.536V123.536V124.536C474.29 124.536 478.821 123.707 482.805 122.025L482.416 121.104ZM505.049 122H504.049V123H505.049V122ZM505.049 32.4V31.4H504.049V32.4H505.049ZM521.945 32.4H522.945V31.4H521.945V32.4ZM521.945 122V123H522.945V122H521.945ZM547.545 122H546.545V123H547.545V122ZM547.545 89.232V88.232H546.545V89.232H547.545ZM564.441 89.232H565.441V88.232H564.441V89.232ZM564.441 122V123H565.441V122H564.441ZM547.545 89.232H546.545V90.232H547.545V89.232ZM541.785 74L541.259 74.8503L541.274 74.8595L541.289 74.8682L541.785 74ZM535.513 72.336L535.493 73.3358L535.503 73.336H535.513V72.336ZM525.401 76.304L524.648 75.6455L524.643 75.6523L524.637 75.6591L525.401 76.304ZM521.945 88.464V89.464H522.945V88.464H521.945ZM516.313 88.464H515.313V89.464H516.313V88.464ZM519.257 71.184L518.338 70.7901L518.334 70.7982L519.257 71.184ZM527.705 60.304L528.273 61.1269L528.277 61.1241L527.705 60.304ZM553.433 59.536L552.928 60.3991L552.937 60.4042L553.433 59.536ZM561.625 69.136L560.707 69.5321L560.71 69.5387L561.625 69.136ZM564.441 89.232V90.232H565.441V89.232H564.441ZM505.049 122H506.049V32.4H505.049H504.049V122H505.049ZM505.049 32.4V33.4H521.945V32.4V31.4H505.049V32.4ZM521.945 32.4H520.945V122H521.945H522.945V32.4H521.945ZM521.945 122V121H505.049V122V123H521.945V122ZM547.545 122H548.545V89.232H547.545H546.545V122H547.545ZM547.545 89.232V90.232H564.441V89.232V88.232H547.545V89.232ZM564.441 89.232H563.441V122H564.441H565.441V89.232H564.441ZM564.441 122V121H547.545V122V123H564.441V122ZM547.545 89.232H548.545C548.545 84.8238 548.03 81.2964 546.928 78.7261L546.009 79.12L545.09 79.5139C546.036 81.7223 546.545 84.9362 546.545 89.232H547.545ZM546.009 79.12L546.928 78.7261C545.841 76.1894 544.306 74.2889 542.281 73.1318L541.785 74L541.289 74.8682C542.848 75.759 544.129 77.2719 545.09 79.5139L546.009 79.12ZM541.785 74L542.311 73.1497C540.341 71.9299 538.063 71.336 535.513 71.336V72.336V73.336C537.742 73.336 539.645 73.8514 541.259 74.8503L541.785 74ZM535.513 72.336L535.533 71.3362C530.95 71.2463 527.271 72.648 524.648 75.6455L525.401 76.304L526.154 76.9625C528.309 74.4986 531.372 73.255 535.493 73.3358L535.513 72.336ZM525.401 76.304L524.637 75.6591C522.12 78.6419 520.945 82.9667 520.945 88.464H521.945H522.945C522.945 83.2093 524.074 79.4275 526.165 76.9489L525.401 76.304ZM521.945 88.464V87.464H516.313V88.464V89.464H521.945V88.464ZM516.313 88.464H517.313C517.313 81.7271 518.282 76.1069 520.18 71.5698L519.257 71.184L518.334 70.7982C516.306 75.6478 515.313 81.5476 515.313 88.464H516.313ZM519.257 71.184L520.176 71.5779C522.164 66.9385 524.872 63.4753 528.273 61.1269L527.705 60.304L527.137 59.4811C523.37 62.082 520.446 65.8721 518.338 70.7901L519.257 71.184ZM527.705 60.304L528.277 61.1241C531.764 58.6915 535.827 57.464 540.505 57.464V56.464V55.464C535.455 55.464 530.985 56.7965 527.133 59.4839L527.705 60.304ZM540.505 56.464V57.464C545.493 57.464 549.618 58.4614 552.928 60.399L553.433 59.536L553.938 58.673C550.251 56.5146 545.757 55.464 540.505 55.464V56.464ZM553.433 59.536L552.937 60.4042C556.306 62.3292 558.902 65.3483 560.707 69.5321L561.625 69.136L562.543 68.7399C560.593 64.2197 557.728 60.8388 553.929 58.6678L553.433 59.536ZM561.625 69.136L560.71 69.5387C562.511 73.6338 563.441 79.029 563.441 85.776H564.441H565.441C565.441 78.8697 564.493 73.1716 562.54 68.7333L561.625 69.136ZM564.441 85.776H563.441V89.232H564.441H565.441V85.776H564.441ZM564.441 89.232V88.232H547.545V89.232V90.232H564.441V89.232ZM577.921 122H576.921V123H577.921V122ZM577.921 32.4V31.4H576.921V32.4H577.921ZM594.817 32.4H595.817V31.4H594.817V32.4ZM594.817 110.096L595.814 110.171L595.817 110.134V110.096H594.817ZM593.921 122V123H594.849L594.918 122.075L593.921 122ZM600.449 119.44L599.852 120.242L599.861 120.249L600.449 119.44ZM592.001 107.792L592.933 107.429L592.001 107.792ZM592.001 72.208L592.931 72.5766L592.933 72.5712L592.001 72.208ZM600.449 60.56L599.861 59.7512L599.852 59.7578L600.449 60.56ZM629.377 60.56L628.838 61.4023L628.846 61.4071L629.377 60.56ZM639.489 72.208L638.586 72.6367L638.588 72.6427L639.489 72.208ZM639.489 107.792L638.586 107.363L639.489 107.792ZM629.377 119.44L628.846 118.593L628.838 118.598L629.377 119.44ZM617.857 105.744L617.316 104.903L617.309 104.907L617.302 104.912L617.857 105.744ZM623.489 99.344L624.383 99.7912L623.489 99.344ZM623.489 80.656L622.584 81.0804L622.589 81.0919L622.595 81.1032L623.489 80.656ZM617.985 74.384L617.43 75.216L617.448 75.2278L617.466 75.2388L617.985 74.384ZM596.737 80.784L597.637 81.2196L597.642 81.2084L596.737 80.784ZM596.737 99.344L595.832 99.7684L596.737 99.344ZM601.985 105.744L601.416 106.566L601.423 106.571L601.43 106.576L601.985 105.744ZM577.921 122H578.921V32.4H577.921H576.921V122H577.921ZM577.921 32.4V33.4H594.817V32.4V31.4H577.921V32.4ZM594.817 32.4H593.817V110.096H594.817H595.817V32.4H594.817ZM594.817 110.096L593.82 110.021L592.924 121.925L593.921 122L594.918 122.075L595.814 110.171L594.817 110.096ZM593.921 122V121H577.921V122V123H593.921V122ZM614.145 123.536V122.536C608.946 122.536 604.595 121.219 601.037 118.631L600.449 119.44L599.861 120.249C603.812 123.123 608.592 124.536 614.145 124.536V123.536ZM600.449 119.44L601.046 118.638C597.553 116.038 594.84 112.321 592.933 107.429L592.001 107.792L591.069 108.155C593.088 113.333 596.007 117.381 599.852 120.242L600.449 119.44ZM592.001 107.792L592.933 107.429C591.025 102.536 590.057 96.7338 590.057 90H589.057H588.057C588.057 96.9195 589.051 102.979 591.069 108.155L592.001 107.792ZM589.057 90H590.057C590.057 83.1784 591.026 77.3794 592.931 72.5766L592.001 72.208L591.071 71.8394C589.051 76.9353 588.057 82.9976 588.057 90H589.057ZM592.001 72.208L592.933 72.5712C594.84 67.6792 597.553 63.9619 601.046 61.3622L600.449 60.56L599.852 59.7578C596.007 62.6194 593.088 66.6674 591.069 71.8448L592.001 72.208ZM600.449 60.56L601.037 61.3687C604.595 58.7813 608.946 57.464 614.145 57.464V56.464V55.464C608.592 55.464 603.812 56.8774 599.861 59.7513L600.449 60.56ZM614.145 56.464V57.464C619.874 57.464 624.757 58.7904 628.838 61.4023L629.377 60.56L629.916 59.7177C625.464 56.8682 620.192 55.464 614.145 55.464V56.464ZM629.377 60.56L628.846 61.4071C633.023 64.028 636.271 67.7589 638.586 72.6367L639.489 72.208L640.392 71.7793C637.929 66.5877 634.435 62.5534 629.909 59.7129L629.377 60.56ZM639.489 72.208L638.588 72.6427C640.898 77.4262 642.073 83.2008 642.073 90H643.073H644.073C644.073 82.9752 642.859 76.8885 640.39 71.7732L639.489 72.208ZM643.073 90H642.073C642.073 96.7111 640.899 102.489 638.586 107.363L639.489 107.792L640.392 108.221C642.858 103.025 644.073 96.9423 644.073 90H643.073ZM639.489 107.792L638.586 107.363C636.271 112.241 633.023 115.972 628.846 118.593L629.377 119.44L629.909 120.287C634.435 117.447 637.929 113.412 640.392 108.221L639.489 107.792ZM629.377 119.44L628.838 118.598C624.757 121.21 619.874 122.536 614.145 122.536V123.536V124.536C620.192 124.536 625.464 123.132 629.916 120.282L629.377 119.44ZM609.793 108.048V109.048C613.04 109.048 615.926 108.233 618.412 106.576L617.857 105.744L617.302 104.912C615.18 106.327 612.69 107.048 609.793 107.048V108.048ZM617.857 105.744L618.398 106.585C620.95 104.945 622.944 102.67 624.383 99.7912L623.489 99.344L622.595 98.8968C621.303 101.479 619.543 103.471 617.316 104.903L617.857 105.744ZM623.489 99.344L624.383 99.7912C625.828 96.9027 626.537 93.6312 626.537 90H625.537H624.537C624.537 93.3662 623.881 96.324 622.595 98.8968L623.489 99.344ZM625.537 90H626.537C626.537 86.3688 625.828 83.0973 624.383 80.2088L623.489 80.656L622.595 81.1032C623.881 83.676 624.537 86.6338 624.537 90H625.537ZM623.489 80.656L624.394 80.2316C623.038 77.3372 621.075 75.0903 618.504 73.5292L617.985 74.384L617.466 75.2388C619.674 76.5791 621.38 78.5134 622.584 81.0804L623.489 80.656ZM617.985 74.384L618.54 73.5519C616.054 71.8946 613.168 71.08 609.921 71.08V72.08V73.08C612.818 73.08 615.308 73.8014 617.43 75.216L617.985 74.384ZM609.921 72.08V71.08C606.832 71.08 604.035 71.901 601.558 73.5519L602.113 74.384L602.668 75.216C604.799 73.795 607.207 73.08 609.921 73.08V72.08ZM602.113 74.384L601.558 73.5519C599.089 75.1982 597.182 77.4788 595.832 80.3596L596.737 80.784L597.642 81.2084C598.852 78.6279 600.529 76.6418 602.668 75.216L602.113 74.384ZM596.737 80.784L595.837 80.3484C594.48 83.153 593.817 86.3789 593.817 90H594.817H595.817C595.817 86.6237 596.434 83.7056 597.637 81.2196L596.737 80.784ZM594.817 90H593.817C593.817 93.622 594.48 96.8853 595.832 99.7684L596.737 99.344L597.642 98.9196C596.434 96.3414 595.817 93.3754 595.817 90H594.817ZM596.737 99.344L595.832 99.7684C597.177 102.64 599.035 104.918 601.416 106.566L601.985 105.744L602.554 104.922C600.497 103.498 598.857 101.51 597.642 98.9196L596.737 99.344ZM601.985 105.744L601.43 106.576C603.907 108.227 606.704 109.048 609.793 109.048V108.048V107.048C607.079 107.048 604.671 106.333 602.54 104.912L601.985 105.744ZM692.827 122L691.828 122.04L691.866 123H692.827V122ZM692.315 109.072H691.315V109.092L691.316 109.112L692.315 109.072ZM691.035 79.76L690.072 80.0307L690.076 80.0446L690.081 80.0583L691.035 79.76ZM687.195 73.488L686.526 74.2313L686.545 74.2488L686.566 74.2652L687.195 73.488ZM672.731 72.976L672.257 72.0955L672.731 72.976ZM667.099 78.48L666.773 79.4254L667.528 79.6856L667.949 79.0074L667.099 78.48ZM652.251 73.36L651.335 72.9592L650.9 73.9521L651.925 74.3054L652.251 73.36ZM657.499 65.424L658.242 66.093L658.248 66.0869L658.253 66.0808L657.499 65.424ZM666.459 59.024L666.863 59.9387L666.873 59.9344L666.459 59.024ZM696.283 60.176L695.781 61.0411L695.789 61.0453L696.283 60.176ZM705.883 70.672L704.972 71.0845L704.977 71.095L704.982 71.1053L705.883 70.672ZM708.955 86.544L707.955 86.5301V86.5332L708.955 86.544ZM708.571 122V123H709.56L709.571 122.011L708.571 122ZM656.987 118.416L656.355 119.191L656.362 119.197L656.987 118.416ZM657.499 88.592L658.101 89.3902L658.104 89.3884L657.499 88.592ZM693.083 83.344H694.083V82.344H693.083V83.344ZM693.083 95.888V96.888H694.083V95.888H693.083ZM671.195 97.936L671.709 98.7935L671.722 98.7861L671.734 98.7783L671.195 97.936ZM670.555 107.92L670.01 108.758L670.025 108.768L670.041 108.777L670.555 107.92ZM685.147 107.536L685.662 108.394L685.671 108.388L685.147 107.536ZM690.395 102.416L691.243 102.946L691.248 102.938L691.253 102.93L690.395 102.416ZM692.315 95.888V94.888H691.315V95.888H692.315ZM696.411 95.888H697.411V94.888H696.411V95.888ZM691.419 116.24L690.594 115.675L690.587 115.685L691.419 116.24ZM692.827 122L693.826 121.96L693.314 109.032L692.315 109.072L691.316 109.112L691.828 122.04L692.827 122ZM692.315 109.072H693.315V89.616H692.315H691.315V109.072H692.315ZM692.315 89.616H693.315C693.315 85.7071 692.881 82.3155 691.99 79.4617L691.035 79.76L690.081 80.0583C690.895 82.6658 691.315 85.8449 691.315 89.616H692.315ZM691.035 79.76L691.998 79.4893C691.187 76.6058 689.811 74.3191 687.824 72.7108L687.195 73.488L686.566 74.2652C688.163 75.5582 689.347 77.4528 690.072 80.0307L691.035 79.76ZM687.195 73.488L687.864 72.7447C685.924 70.9987 683.312 70.184 680.155 70.184V71.184V72.184C682.971 72.184 685.053 72.9053 686.526 74.2313L687.195 73.488ZM680.155 71.184V70.184C677.273 70.184 674.633 70.8159 672.257 72.0955L672.731 72.976L673.205 73.8565C675.266 72.7467 677.576 72.184 680.155 72.184V71.184ZM672.731 72.976L672.257 72.0955C669.862 73.3852 667.863 75.3529 666.249 77.9526L667.099 78.48L667.949 79.0074C669.407 76.6578 671.163 74.9561 673.205 73.8565L672.731 72.976ZM667.099 78.48L667.425 77.5346L652.577 72.4146L652.251 73.36L651.925 74.3054L666.773 79.4254L667.099 78.48ZM652.251 73.36L653.167 73.7608C654.313 71.1421 655.999 68.5855 658.242 66.093L657.499 65.424L656.756 64.755C654.391 67.3825 652.578 70.1165 651.335 72.9592L652.251 73.36ZM657.499 65.424L658.253 66.0808C660.448 63.5609 663.309 61.5093 666.863 59.9387L666.459 59.024L666.055 58.1093C662.271 59.7814 659.158 61.9965 656.745 64.7672L657.499 65.424ZM666.459 59.024L666.873 59.9344C670.464 58.3018 674.88 57.464 680.155 57.464V56.464V55.464C674.678 55.464 669.963 56.3329 666.045 58.1136L666.459 59.024ZM680.155 56.464V57.464C686.518 57.464 691.708 58.6784 695.781 61.041L696.283 60.176L696.785 59.311C692.325 56.7243 686.763 55.464 680.155 55.464V56.464ZM696.283 60.176L695.789 61.0453C699.959 63.4165 703.012 66.756 704.972 71.0845L705.883 70.672L706.794 70.2595C704.658 65.5426 701.311 61.8849 696.777 59.3067L696.283 60.176ZM705.883 70.672L704.982 71.1053C707.034 75.3729 708.039 80.5033 707.955 86.5301L708.955 86.544L709.955 86.5579C710.042 80.2967 708.999 74.8457 706.784 70.2387L705.883 70.672ZM708.955 86.544L707.955 86.5332L707.571 121.989L708.571 122L709.571 122.011L709.955 86.5548L708.955 86.544ZM708.571 122V121H692.827V122V123H708.571V122ZM674.907 123.536V122.536C667.364 122.536 661.641 120.859 657.612 117.635L656.987 118.416L656.362 119.197C660.866 122.8 667.09 124.536 674.907 124.536V123.536ZM656.987 118.416L657.619 117.641C653.708 114.448 651.715 109.933 651.715 103.952H650.715H649.715C649.715 110.43 651.903 115.557 656.355 119.191L656.987 118.416ZM650.715 103.952H651.715C651.715 97.367 653.882 92.575 658.101 89.3902L657.499 88.592L656.897 87.7938C652.071 91.4357 649.715 96.8837 649.715 103.952H650.715ZM657.499 88.592L658.104 89.3884C662.477 86.068 668.677 84.344 676.827 84.344V83.344V82.344C668.422 82.344 661.737 84.1187 656.894 87.7956L657.499 88.592ZM676.827 83.344V84.344H693.083V83.344V82.344H676.827V83.344ZM693.083 83.344H692.083V95.888H693.083H694.083V83.344H693.083ZM693.083 95.888V94.888H682.715V95.888V96.888H693.083V95.888ZM682.715 95.888V94.888C677.156 94.888 673.054 95.5593 670.656 97.0937L671.195 97.936L671.734 98.7783C673.603 97.5821 677.181 96.888 682.715 96.888V95.888ZM671.195 97.936L670.68 97.0785C668.261 98.5301 666.995 100.682 666.995 103.44H667.995H668.995C668.995 101.419 669.862 99.9019 671.709 98.7935L671.195 97.936ZM667.995 103.44H666.995C666.995 105.688 668.048 107.483 670.01 108.758L670.555 107.92L671.1 107.082C669.649 106.138 668.995 104.946 668.995 103.44H667.995ZM670.555 107.92L670.041 108.777C671.965 109.932 674.56 110.456 677.723 110.456V109.456V108.456C674.742 108.456 672.558 107.956 671.07 107.063L670.555 107.92ZM677.723 109.456V110.456C680.696 110.456 683.353 109.779 685.661 108.393L685.147 107.536L684.633 106.679C682.674 107.853 680.382 108.456 677.723 108.456V109.456ZM685.147 107.536L685.671 108.388C688.011 106.948 689.875 105.135 691.243 102.946L690.395 102.416L689.547 101.886C688.355 103.793 686.721 105.393 684.623 106.684L685.147 107.536ZM690.395 102.416L691.253 102.93C692.614 100.661 693.315 98.3092 693.315 95.888H692.315H691.315C691.315 97.9041 690.736 99.9043 689.538 101.902L690.395 102.416ZM692.315 95.888V96.888H696.411V95.888V94.888H692.315V95.888ZM696.411 95.888H695.411C695.411 104.481 693.766 111.04 690.594 115.675L691.419 116.24L692.244 116.805C695.728 111.712 697.411 104.703 697.411 95.888H696.411ZM691.419 116.24L690.587 115.685C687.588 120.183 682.46 122.536 674.907 122.536V123.536V124.536C682.885 124.536 688.764 122.025 692.251 116.795L691.419 116.24ZM735.477 119.312L734.99 120.186L735.001 120.192L735.477 119.312ZM723.317 107.408L722.447 107.901L722.451 107.907L723.317 107.408ZM723.317 72.592L724.183 73.0913L723.317 72.592ZM735.349 60.816L735.831 61.6923L735.842 61.686L735.349 60.816ZM782.069 74.896L782.403 75.8384L783.384 75.4905L782.997 74.5246L782.069 74.896ZM766.197 80.528L765.296 80.9627L765.686 81.7703L766.531 81.4704L766.197 80.528ZM760.565 74.64L760.038 75.4896L760.055 75.5002L760.072 75.51L760.565 74.64ZM743.925 74.64L744.444 75.4948L744.455 75.4881L744.466 75.4812L743.925 74.64ZM738.293 80.784L737.404 80.3254L738.293 80.784ZM738.293 99.216L737.404 99.6747L737.411 99.6866L738.293 99.216ZM744.053 105.36L744.58 104.51L744.053 105.36ZM760.821 105.232L760.286 104.387L760.279 104.391L760.273 104.396L760.821 105.232ZM766.453 98.832L766.785 97.8887L765.919 97.584L765.542 98.4204L766.453 98.832ZM782.453 104.464L783.379 104.842L783.776 103.87L782.785 103.521L782.453 104.464ZM770.805 118.544L770.273 117.698L770.266 117.701L770.805 118.544ZM753.269 123.536V122.536C746.758 122.536 740.995 121.16 735.953 118.432L735.477 119.312L735.001 120.192C740.37 123.096 746.468 124.536 753.269 124.536V123.536ZM735.477 119.312L735.964 118.439C730.912 115.623 726.992 111.782 724.183 106.909L723.317 107.408L722.451 107.907C725.445 113.103 729.631 117.198 734.99 120.185L735.477 119.312ZM723.317 107.408L724.187 106.915C721.379 101.96 719.965 96.3306 719.965 90H718.965H717.965C717.965 96.6401 719.452 102.616 722.447 107.901L723.317 107.408ZM718.965 90H719.965C719.965 83.5812 721.381 77.9551 724.183 73.0913L723.317 72.592L722.451 72.0927C719.451 77.2982 717.965 83.2774 717.965 90H718.965ZM723.317 72.592L724.183 73.0913C726.993 68.216 730.87 64.4206 735.831 61.6922L735.349 60.816L734.867 59.9398C729.588 62.8434 725.444 66.8987 722.451 72.0927L723.317 72.592ZM735.349 60.816L735.842 61.686C740.793 58.8806 746.507 57.464 753.013 57.464V56.464V55.464C746.207 55.464 740.145 56.9488 734.856 59.946L735.349 60.816ZM753.013 56.464V57.464C759.24 57.464 764.907 58.9975 770.037 62.0587L770.549 61.2L771.061 60.3413C765.61 57.0878 759.586 55.464 753.013 55.464V56.464ZM770.549 61.2L770.037 62.0587C775.13 65.0984 778.829 69.4881 781.141 75.2674L782.069 74.896L782.997 74.5246C780.531 68.3573 776.549 63.6162 771.061 60.3413L770.549 61.2ZM782.069 74.896L781.735 73.9536L765.863 79.5856L766.197 80.528L766.531 81.4704L782.403 75.8384L782.069 74.896ZM766.197 80.528L767.098 80.0933C765.808 77.4222 763.782 75.3134 761.058 73.77L760.565 74.64L760.072 75.51C762.468 76.8679 764.197 78.6844 765.296 80.9627L766.197 80.528ZM760.565 74.64L761.092 73.7904C758.451 72.1506 755.493 71.336 752.245 71.336V72.336V73.336C755.141 73.336 757.73 74.0574 760.038 75.4896L760.565 74.64ZM752.245 72.336V71.336C748.918 71.336 745.953 72.1478 743.384 73.7988L743.925 74.64L744.466 75.4812C746.676 74.0602 749.257 73.336 752.245 73.336V72.336ZM743.925 74.64L743.406 73.7852C740.849 75.3377 738.848 77.5275 737.404 80.3254L738.293 80.784L739.182 81.2426C740.468 78.7498 742.222 76.8437 744.444 75.4948L743.925 74.64ZM738.293 80.784L737.404 80.3254C735.954 83.1354 735.245 86.3697 735.245 90H736.245H737.245C737.245 86.633 737.901 83.7233 739.182 81.2426L738.293 80.784ZM736.245 90H735.245C735.245 93.6303 735.954 96.8646 737.404 99.6746L738.293 99.216L739.182 98.7574C737.901 96.2767 737.245 93.367 737.245 90H736.245ZM738.293 99.216L737.411 99.6866C738.859 102.403 740.902 104.581 743.526 106.21L744.053 105.36L744.58 104.51C742.255 103.067 740.457 101.149 739.175 98.7454L738.293 99.216ZM744.053 105.36L743.526 106.21C746.172 107.852 749.174 108.664 752.501 108.664V107.664V106.664C749.514 106.664 746.883 105.94 744.58 104.51L744.053 105.36ZM752.501 107.664V108.664C755.76 108.664 758.725 107.801 761.369 106.068L760.821 105.232L760.273 104.396C757.968 105.906 755.386 106.664 752.501 106.664V107.664ZM760.821 105.232L761.356 106.077C764.073 104.356 766.086 102.075 767.364 99.2436L766.453 98.832L765.542 98.4204C764.431 100.88 762.689 102.866 760.286 104.387L760.821 105.232ZM766.453 98.832L766.121 99.7753L782.121 105.407L782.453 104.464L782.785 103.521L766.785 97.8887L766.453 98.832ZM782.453 104.464L781.527 104.086C779.128 109.961 775.378 114.486 770.273 117.698L770.805 118.544L771.337 119.39C776.814 115.946 780.829 111.084 783.379 104.842L782.453 104.464ZM770.805 118.544L770.266 117.701C765.23 120.921 759.573 122.536 753.269 122.536V123.536V124.536C759.935 124.536 765.969 122.823 771.344 119.387L770.805 118.544ZM808.424 105.744L807.669 106.4L808.412 107.256L809.169 106.411L808.424 105.744ZM798.312 94.096L797.572 93.4239L796.975 94.0812L797.557 94.7516L798.312 94.096ZM831.08 58V57H830.637L830.34 57.3279L831.08 58ZM851.176 58L851.921 58.6671L853.414 57H851.176V58ZM792.296 122H791.296V123H792.296V122ZM792.296 32.4V31.4H791.296V32.4H792.296ZM809.192 32.4H810.192V31.4H809.192V32.4ZM809.192 122V123H810.192V122H809.192ZM833.256 122L832.431 122.566L832.729 123H833.256V122ZM812.008 91.024L811.281 90.3371L810.727 90.9239L811.183 91.5897L812.008 91.024ZM823.016 79.376L823.833 78.7994L823.128 77.8011L822.289 78.6891L823.016 79.376ZM853.096 122V123H855.026L853.913 121.423L853.096 122ZM808.424 105.744L809.179 105.088L799.067 93.4404L798.312 94.096L797.557 94.7516L807.669 106.4L808.424 105.744ZM798.312 94.096L799.052 94.7682L831.82 58.6721L831.08 58L830.34 57.3279L797.572 93.4239L798.312 94.096ZM831.08 58V59H851.176V58V57H831.08V58ZM851.176 58L850.431 57.3329L807.679 105.077L808.424 105.744L809.169 106.411L851.921 58.6671L851.176 58ZM792.296 122H793.296V32.4H792.296H791.296V122H792.296ZM792.296 32.4V33.4H809.192V32.4V31.4H792.296V32.4ZM809.192 32.4H808.192V122H809.192H810.192V32.4H809.192ZM809.192 122V121H792.296V122V123H809.192V122ZM833.256 122L834.081 121.434L812.833 90.4583L812.008 91.024L811.183 91.5897L832.431 122.566L833.256 122ZM812.008 91.024L812.735 91.7109L823.743 80.0629L823.016 79.376L822.289 78.6891L811.281 90.3371L812.008 91.024ZM823.016 79.376L822.199 79.9526L852.279 122.577L853.096 122L853.913 121.423L823.833 78.7994L823.016 79.376ZM853.096 122V121H833.256V122V123H853.096V122Z" fill="#22E4A3" mask="url(#path-1-outside-1_159_2)"/>
<path d="M16 130C16 146.384 30.2106 159 57.2106 159C84.2105 159 97 143.863 97 130" stroke="#22E4A3" stroke-width="17"/>
</svg>
